<svg xmlns="http://www.w3.org/2000/svg" width="35" height="55" style=""><rect id="backgroundrect" width="100%" height="100%" x="0" y="0" fill="none" stroke="none" class="" style=""/>
 <defs>
  <linearGradient id="f" x1="0.71875" x2="0.78125" y1="0.375" y2="0.7070299983024597">
   <stop stop-color="#23a5fc" offset="0"/>
   <stop stop-color="#02446b" offset="1"/>
  </linearGradient>
  <linearGradient id="d" x1="0.6015599966049194" y1="0.6367200016975403" y2="1">
   <stop stop-color="#008cff" offset="0"/>
   <stop stop-color="#023863" offset="1"/>
  </linearGradient>
  <linearGradient id="e" x1="0.7343800067901611" x2="0.8593800067901611" y1="0.45311999320983887" y2="0.7851600050926208">
   <stop stop-color="#23a5fc" offset="0"/>
   <stop stop-color="#02446b" offset="1"/>
  </linearGradient>
 </defs>
 
 
<g class="currentLayer" style=""><title>Layer 1</title><g stroke-width="0" id="svg_1" class="">
  <text x="-88.14786851343962" y="196.60597794914207" font-family="Arial" font-size="24" opacity=".5" stroke="#096388" stroke-dasharray="null" text-anchor="middle" xml:space="preserve" id="svg_2" transform="matrix(0.1495305637524742,0,0,0.1495305637524742,9.555382055296892,0.000007810007844120835) "/>
  <path d="m13.645361696314065,1.5111603900131336 c4.8099496442258385,6.479607919085966 -1.445467100626043,15.32688278462861 -11.36432284518804,30.42946972362851 s15.625943912133557,22.828831168090243 17.221435027372458,23.501718704976373 c1.5950425235476429,0.6728875368861343 -11.214792281435571,-4.959480207978312 -8.249152610532747,-14.080844596879246 s9.096392784754265,-16.497707098810483 10.467139462673197,-23.40153322726222 c1.3707018187498057,-6.903377536760479 -12.884600086859447,-22.927521340166876 -8.074650442633608,-16.44836201277217 z" fill="url(#e)" stroke="url(#d)" id="svg_3"/>
  <g fill="url(#f)" stroke="#0b8ec1" id="svg_4">
   <path d="m25.385006256520814,19.1258608000546 c1.8208336748138791,3.704171125276291 -6.868237854278647,16.825179033428398 -8.712547827601663,22.432575174146187 c-1.8444595038867706,5.606798018462774 4.648606165936918,10.629828716035888 2.343143934001271,8.10560326933037 c-2.3053127013718955,-2.524075916141765 2.9116591373881793,-10.449046264459147 5.070282355718896,-14.09654530607325 c2.1587727488944712,-3.647349511050351 2.9342382525148016,-5.902120881873909 3.5630142730939562,-8.034576251547946 c0.6288059266919049,-2.132455369674035 0.5412856877275817,-3.4335208048843127 -0.6960199150986419,-5.7754684943755645 c-1.2372906497698481,-2.341798158927499 -3.3886616357585715,-6.335909047319838 -1.5678279609446921,-2.631737922043546 z" id="svg_5"/>
   <path d="m22.85943503474153,54.17881555490961 c0.4975928569991088,1.66920968316887 -0.9941090939391993,-2.092082117460867 0.08334385031871672,-5.595732756745093 s5.123515236414779,-8.343207335133053 6.99175009993819,-11.827419001129455 s3.048180542094187,-8.753070610378584 1.550332884985653,-11.556021027918714 s0.26448966116537687,0.3226121912959635 1.5270061170402665,2.3281908776260236 c1.2625912211567667,2.005653451611937 1.9732053192776495,3.479576218520076 1.9416543703258782,6.759230073303093 c-0.03156889261942238,3.2796538547830174 -0.888600328155454,7.125131362805397 -6.546896672774579,12.1535451606736 c-5.658386062957377,5.028413797868204 -6.044773039693771,6.068996991021672 -5.547135323525537,7.738206674190542 z" stroke-dasharray="null" id="svg_6"/>
  </g>
 </g></g></svg>