<svg xmlns="http://www.w3.org/2000/svg" width="50" height="58" clip-rule="evenodd" fill-rule="evenodd" image-rendering="optimizeQuality" shape-rendering="geometricPrecision" text-rendering="geometricPrecision" version="1.1" xml:space="preserve" style=""><rect id="backgroundrect" width="100%" height="100%" x="0" y="0" fill="none" stroke="none" class="" style=""/>
 <defs>
  <style type="text/css">
   <![CDATA[
    .fil9 {fill:#B01800}
    .fil4 {fill:#D81000}
    .fil2 {fill:#E83000}
    .fil0 {fill:#F76000}
    .fil8 {fill:#FE9018}
    .fil6 {fill:#FEA828}
    .fil1 {fill:#FF7800}
    .fil10 {fill:#FFD078}
    .fil5 {fill:#FFD840}
    .fil3 {fill:#FFE858}
    .fil7 {fill:#FFF8B0}
   ]]>
  </style>
 </defs>
   
   
   
   
   
   
   
   
   
   
   
   
   
   
   
   
   
   
   
   
   
   
   
   
   
   
   
   
   
   
   
   
   
   
   
   
   
   
   
   
   
   
   
   
   
   
   
   
   
   
   
   
   
   
   
   
   
   
   
   
   
   
   
   
   
   
   
   
   
   
   
<g class="currentLayer" style=""><title>Layer 1</title><g class="" id="svg_72"><path class="fil0" d="m8.650549475093744,12.687171731240827 c6.875326220875343,-3.0973492587587623 -0.6165106008675885,-1.706501343201484 3.2403797181600433,-0.7299485514272246 c0.5573255831842997,0.1430304594012805 0.1430304594012805,-0.33044968206502734 -1.627587986290433,1.5190821205377372 c2.362468622524598,-0.14796254420822122 3.255175972580865,-2.574548269223048 3.1959909548975767,-1.2971383042254052 c-0.02959250884164425,0.6855597881647578 1.154107844824125,-0.6559672793231139 2.480838657891175,0.922299858897912 c-0.09370961133187362,0.14796254420822122 -4.359962969335583,3.0874850891448813 -2.1799814846677914,0.8828431804423862 c1.6719767495528992,-1.6867730039737214 -1.7459580216570096,1.4796254420822121 -5.449953711669479,0.05918501768328853 c-0.9716207069673187,-0.37483844532749355 -0.12823420498045848,-0.8779110956354457 0.3452459364858493,-1.3563233219086943 z" id="svg_1"/><path class="fil1" d="m14.647964600333644,7.626852719319663 c-0.28112883399562033,0.6461031097092325 -1.425372509205864,2.604140778064693 -0.00493208480694071,1.5733350534140853 c-5.272398658619615,5.740946715278981 -1.5388104597655001,0.5326651591495963 -4.103494559374666,1.869260141830527 c-8.502914207165777,4.424080071825812 0.7052881273925208,-1.627587986290433 2.737307067852091,-2.9000658664811345 c0.41922720858996027,-0.2614004947678578 0.8976394348632086,-0.40443095416913805 1.3711195763295159,-0.5425293287634779 z" id="svg_2"/><path class="fil2" d="m5.671570251701561,14.960862827240494 c0.5721218376051221,-0.5178689047287739 4.54245010719239,-4.438876326246634 1.9432414139346377,-1.2527495409629392 c5.292126997847377,1.3119345586462277 5.844520496224735,0.3994988693621974 -0.9321640285117934,2.5696161844161076 c-2.2934194352274275,0.7348806362341652 2.7668995766937354,-1.711433428008424 -0.2860609188025613,-1.1047869967547184 c-0.922299858897912,0.18248713785680637 0.2860609188025613,-0.8976394348632086 -0.725016466620284,-0.21701173150539163 z" id="svg_3"/><path class="fil0" d="m6.628394704248057,16.33198240357001 c1.1935645232796506,-0.725016466620284 1.6670446647459582,-0.6954239577786395 3.0283000714615933,-0.7595410602688688 c-7.940656539174535,5.371040354758428 -5.006066079044816,8.266174136432621 -9.015851027087608,11.496689684978785 c1.0061453006159036,-2.9888433930060674 3.871686573448453,-8.374680002185316 5.982618870819074,-10.737148624709915 z" id="svg_4"/><path class="fil3" d="m15.363116897340046,9.032496889297763 c-0.8581827564076828,-1.159039929631066 1.2872741346115242,-1.5289462901516184 1.3365949826809311,-1.494421696503034 c-0.675695618550877,1.1886324384727098 1.7804826153055946,1.474693357275271 0.06904918729716995,3.255175972580865 c-0.9124356892840305,0.9469602829326151 -1.7459580216570096,-0.36497427571361263 -1.4105762547850418,-1.760754276077832 z" id="svg_5"/><path class="fil4" d="m5.671570251701561,14.960862827240494 c4.0936303897607855,-1.7410259368500691 -5.977686786012135,9.331504454731816 -0.9814848765812005,1.3267308130670494 c0.300857173223383,-0.4882763958871299 0.6214426856745294,-0.8828431804423862 0.9814848765812005,-1.3267308130670494 z" id="svg_6"/><path class="fil5" d="m14.6430325155267,9.402403249818315 c2.0320189404595705,-0.8532506716007421 -0.951892367739556,1.7163655128153663 2.1947777390886136,1.3908479155572788 c-0.10850586575269576,0.49814056550101143 -3.8470261494137503,3.062824665110178 -2.1947777390886136,0.5474614135704186 c1.0899907423338957,-1.657180495132077 -1.0801265727200147,0.725016466620284 -1.075194487913074,-0.26633257957479817 c0.00493208480694071,-1.1442436752102436 -1.3859158307503383,0.25646840996091697 1.075194487913074,-1.6769088343598404 z" id="svg_7"/><path class="fil6" d="m14.647964600333644,7.626852719319663 c2.475906573084234,-0.7595410602688688 5.301991167461258,-1.0850586575269554 3.501780212927901,2.495634912311997 c-0.00493208480694071,-0.01972833922776285 0.13316628978739928,-4.562178446420152 -2.2934194352274275,-2.352604452910717 c-0.300857173223383,0.2761967491886798 -0.7003560425855804,2.3279440288760127 -1.726229682429247,1.6177238166765513 c-0.24167215554009464,-0.16769088343598398 0.38963469974831594,-1.4598971028544487 0.5178689047287739,-1.760754276077832 z" id="svg_8"/><path class="fil7" d="m16.783557321738968,7.483822259918383 c3.299564735843332,-0.2761967491886798 0.05425293287634777,4.039377456884438 0.33044968206502734,2.3920611313662428 c0.4340234630107824,-2.5646840996091664 -1.6621125799390175,-1.2132928625074135 -0.33044968206502734,-2.3920611313662428 z" id="svg_9"/><path class="fil6" d="m12.176990112056352,11.631705582555515 c2.525227421153641,-2.6682578805549224 1.726229682429247,0.8927073500562678 -1.7212975976223066,2.1503889758261465 c0,-0.02466042403470357 1.5831992230279663,-1.9531055835485196 1.7212975976223066,-2.1503889758261465 z" id="svg_10"/><path class="fil8" d="m16.80821774577367,10.852436183058884 c-0.07891335691105142,1.7706184456917131 1.8643280570235867,-0.8285902475660385 -0.12823420498045848,1.0702624031061332 c-0.6855597881647578,0.6510351945161733 -4.029513287270556,2.022154770845689 -0.08384544171799202,-0.90750360447709 c0.06904918729716995,-0.05425293287634777 0.13809837459434,-0.1035737809457549 0.2120796466984505,-0.15782671382210273 z" id="svg_11"/><path class="fil9" d="m12.024095483041192,9.328421977714207 c-2.4709744882772933,3.1959909548975767 -11.940577317603449,13.237715621828855 -3.7533165380818767,3.35381766871968 c1.154107844824125,-1.3908479155572788 2.3328761136829543,-2.2687590111927247 3.7533165380818767,-3.35381766871968 z" id="svg_12"/><path class="fil2" d="m1.4792981658019608,23.30595032058417 c4.532585937578508,-9.420281981256746 -2.2588948415788423,6.806277033578173 0,0 z" id="svg_13"/><path class="fil10" d="m16.80821774577367,10.852436183058884 c1.8150072089541793,-3.7039956900124693 1.474693357275271,1.5733350534140853 -0.009864169613881427,0.7743373146896908 c-0.16769088343598398,-0.08877752652493279 -0.01972833922776285,-0.6214426856745294 0.009864169613881427,-0.7743373146896908 z" id="svg_14"/><path class="fil8" d="m13.745393080663494,11.577452649679167 c0.00493208480694071,-0.8877752652493274 2.3328761136829543,-1.1984966080865913 -0.05918501768328853,1.0554661486853114 c-0.29592508841644255,-0.10850586575269576 -0.09370961133187362,-0.8187260779521572 0.05918501768328853,-1.0554661486853114 z" id="svg_15"/><path class="fil0" d="m2.1451296147389565,31.335384386283625 c0.1430304594012805,1.5831992230279663 1.800210954533358,11.80247894300911 0.7743373146896908,3.842094064606809 c-0.7348806362341652,-5.696557952016515 -0.26633257957479817,-7.89626777591207 1.3711195763295159,-13.351153572388489 c-3.763180707695758,12.783963819590307 -0.1430304594012805,26.352129123484186 12.137860709881075,32.749043118086284 c6.446234842671501,3.35381766871968 12.552155833664093,3.1368059372142882 19.175945729385464,0.5129368199218335 c-1.9974943468109854,0.5474614135704186 -3.556033145804248,1.0505340638783704 -5.637372934333225,1.3612554067156344 c12.08853986181167,-2.7570354070798553 21.21782883945891,-11.516418024206544 19.905894280812685,-24.517393575302243 c-0.9716207069673187,-9.607701203920493 -7.255096751009779,-15.131636187694083 -15.80239972143802,-18.460793432379056 c10.653303182991923,2.5548199299952854 15.999683113715648,11.442436752102436 15.945430180839303,22.016826578183306 c-0.034524593648585025,6.283476044042458 -0.034524593648585025,-9.29204777627629 0.37977053013443485,-2.3328761136829543 c1.711433428008424,28.975998240776647 -46.19390630180664,35.44196142267591 -48.25551775110785,-1.8150072089541793 z" id="svg_16"/><path class="fil2" d="m2.016895409758498,27.103655621928503 c2.4167215554009456,-5.494342474931946 0.09370961133187362,0.04932084806940717 0.06411710249022927,4.202136255513481 c-0.10850586575269576,16.305472371745974 12.907265939763825,27.792297887110873 28.68500523716714,25.6271126568639 c12.083607777004728,-1.657180495132077 18.510114280448466,-10.939364101794483 19.639561701237888,-22.44591795638715 c-0.5178689047287739,28.975998240776647 -44.89676799758124,32.37913675756573 -48.4675973978063,-0.3699063605205531 c-0.28112883399562033,-2.5696161844161076 -0.1874192226637468,-4.4586046654743985 0.07891335691105142,-7.013424595469683 z" id="svg_17"/><path class="fil0" d="m17.47898127951761,55.828117537551165 c-1.6867730039737214,-1.040669894264489 4.655888057752025,1.2280891169282353 5.800131732962269,1.3859158307503383 c13.262376045863556,1.869260141830527 22.74184304480359,-5.676829612788753 26.717103399197796,-17.997177460526633 c-3.501780212927901,14.26358926167252 -16.448502831147252,21.21289675465197 -30.297796969036746,17.868943255546174 c-6.756956185508766,-1.6325200710973737 -13.725992017715985,-6.628721980528307 -16.03420770736423,-13.365949826809311 c-0.19235130747068774,-0.5622576679912402 3.1663984460559327,4.517789683157685 4.177475831478778,5.6077804254915815 c2.9345904601297192,3.171330530862873 5.73601463047204,4.789054347539425 9.642225797569077,6.4955556907409076 z" id="svg_18"/><path class="fil3" d="m5.257275127918541,41.92457046678531 c-3.4968481281209596,-10.105841769421504 -3.14667010682817,-18.263510040101433 3.7385202836610545,-26.87986219782684 c3.048028410689355,-3.807569470958224 -2.1701173150539104,3.3094289054572137 -2.8556771032186683,4.591770955261796 c-12.290755338896238,23.0574964724478 15.575523820318747,48.29990651437032 35.96969449701856,30.608518311874015 c2.426585725014827,-2.1010681277567405 8.493050037551896,-12.374600780614228 4.399419647791109,-4.986337739817052 c-8.877752652493268,16.029275622557293 -31.239825167162422,14.140287141499002 -40.44802750172072,-1.928445159513816 l-0.8088619083382756,-1.4105762547850418 z" id="svg_19"/><path class="fil4" d="m2.016895409758498,27.103655621928503 c-0.9765527917742594,12.571884172891858 0.9913490461950817,14.012052936518545 7.787761910159373,23.600025801211277 c0.04438876326246641,0.06411710249022927 -7.235368411782015,-5.3661082699514875 -8.734722193091988,-16.601397460162413 c-0.25153632515397634,-1.8741922266374687 -0.3699063605205531,-5.4894103901250055 0.9469602829326151,-7.0035604258558015 z" id="svg_20"/><path class="fil5" d="m4.739406223189767,40.928289335783305 c7.639799365951151,13.839429968275619 22.120400359129064,21.025477531988226 35.9746265818255,10.84565449046261 c3.4425951952446123,-2.5301595059605817 5.114571944797511,-5.3463799307237245 7.13179463083626,-9.001054772666787 c-5.612712510298522,16.532348272865242 -32.892073577487565,19.575444598747662 -41.838875417278,0.8088619083382756 l-1.2626137105768205,-2.6534616261340993 z" id="svg_21"/><path class="fil7" d="m5.469354774616992,20.918821274024864 c-4.867967704450476,15.102043678852441 -0.034524593648585025,30.332321562685337 16.458367000761132,34.4111556980253 c9.834577105039767,2.4315178098217682 17.444783962149273,-2.1158643821775627 23.73319209099867,-9.301911945890168 c-5.558459577422174,10.352446009768538 -22.120400359129064,12.833284667659715 -31.910588700906366,6.1108530757995325 c-10.367242264189363,-7.116998376415438 -12.23650240601989,-19.905894280812685 -8.280970390853442,-31.22009682793466 z" id="svg_22"/><path class="fil6" d="m13.518517179544222,52.55814531054948 c-3.2601080573878063,-2.648529541327159 -4.409283817404991,-3.8223657253790457 -6.850665796840639,-7.250164666202837 c8.364815832571434,10.811129896814025 17.296821417941054,13.602689897542465 30.268204460195104,9.07996812957784 c-8.25630996681874,4.453672580667457 -15.71855427972003,2.9197942057088975 -23.417538663354467,-1.8298034633750015 z" id="svg_23"/><path class="fil8" d="m48.14668460907492,41.76674375296322 c2.840880848797847,-9.38575738760816 1.4155083395919825,-15.743214703754731 -5.020862333465638,-23.16600233820049 c5.750810884892862,3.6891994355916484 8.779110956354453,15.703758025299209 5.657101273560989,21.898456542816728 l-0.6411710249022916,1.2724778801907017 z" id="svg_24"/><path class="fil9" d="m0.7296212751469741,28.938391170110442 c-0.4438876326246639,4.517789683157685 -0.20714756189150968,5.750810884892862 0.7792693994966314,10.125570108649265 c-1.4845575268891524,-5.957958446784372 -2.6682578805549224,-11.876460215113218 0.4685480566593671,-17.479308555797857 c-0.40936303897607856,2.6337332869063372 -0.9962811310020224,4.606567209682618 -1.2478174561559983,7.3488063623416515 z" id="svg_25"/><path class="fil2" d="m0.7296212751469741,28.938391170110442 c0.11343795055963635,5.583120001456879 0.4685480566593671,7.407991380024939 2.2983515200343683,12.66559378422373 c1.075194487913074,3.0924171739518216 -1.4105762547850418,-2.2983515200343683 -1.8840563962513497,-4.927152722133764 c-0.5129368199218335,-2.8458129336047873 -0.4833443110801893,-4.877831874064357 -0.41429512378301947,-7.738441062089968 z" id="svg_26"/><path class="fil10" d="m48.14668460907492,41.76674375296322 c-2.1503889758261465,3.008571732233831 -1.9037847354791122,3.91114325190398 -4.675616396979788,6.830937457612877 c-6.130581415027297,6.451166927478442 3.235447633353102,-1.5684029686071446 5.050454842307282,-8.493050037551896 c1.3711195763295159,-5.2477382345849115 -0.2860609188025613,-16.280811947711268 0.7792693994966314,-8.650876751373998 c0.6559672793231139,4.685480566593669 0.305789258030324,5.780403393734506 -1.154107844824125,10.312989331313014 z" id="svg_27"/><path class="fil8" d="m30.963301141693496,56.247344746141124 c-1.8445997177958242,0.18248713785680637 -12.369668695807286,0.18248713785680637 -4.359962969335583,0.1874192226637468 c8.142872016259105,0.00493208480694071 12.976315127060996,-2.8951337816741938 18.515046365255408,-8.557167140042123 c-2.6238691172924553,4.82357894118801 -9.10462855361254,7.072609613152972 -14.155083395919823,8.369747917378376 z" id="svg_28"/><path class="fil0" d="m24.235937465026375,18.033551661964548 c0.09864169613881439,-2.012290601231807 0.2219438163123322,-2.5301595059605817 0.09864169613881439,-4.720005160242255 l-0.40443095416913805,-0.2860609188025613 c0.07398127210411067,-0.9666886221603787 0.06904918729716995,-0.5869180920259439 0.36497427571361263,-0.3255175972580869 c0.4389555478177227,0.38963469974831594 -0.02959250884164425,0.5967822616398252 0.5622576679912402,0.537597243956537 c0.12330212017351776,-0.8779110956354457 0.12330212017351776,0.014796254420822148 0.06904918729716995,-1.1294474207894214 c0.3353817668719681,1.5536067141863226 0.40936303897607856,1.5831992230279663 0.3205855124511459,4.443808411053575 c0.24167215554009464,-0.7348806362341652 0.13316628978739928,0.42909137820384186 0.33044968206502734,-1.4303045940128047 c0.14796254420822122,-1.3711195763295159 -0.02959250884164425,-3.91114325190398 -0.07398127210411067,-5.420361202827835 c0.09370961133187362,0.7989977387243945 0.02959250884164425,-0.05918501768328853 0.3156534276442052,0.6214426856745294 l0.15289462901516201,0.47348014146630796 c0.3353817668719681,-0.5770539224120625 -0.034524593648585025,0.3205855124511459 0.14796254420822122,-1.0456019790714293 l0.034524593648585025,-0.8581827564076828 c0.675695618550877,-0.009864169613881427 0.37977053013443485,-0.8187260779521572 0.9469602829326151,-1.7212975976223066 c0.13316628978739928,2.3180798592621317 0.03945667845552572,4.345166714914761 -0.09864169613881439,6.263747704814696 l-0.118370035366577,-2.2934194352274275 c-0.08877752652493279,-0.7891335691105128 0.14796254420822122,-0.5721218376051221 -0.2761967491886798,-0.8680469260215646 c-0.40936303897607856,2.387129046559301 0.2761967491886798,3.8470261494137503 -0.15289462901516201,5.8297242418039135 l-0.07891335691105142,-1.2330212017351758 c-0.02959250884164425,1.627587986290433 0.014796254420822148,0.6115785160606475 -0.08877752652493279,1.3612554067156344 c-0.009864169613881427,0.07891335691105142 -0.02959250884164425,0.17262296824292486 -0.04438876326246641,0.24167215554009464 l-0.675695618550877,1.7459580216570096 c-1.321798728260109,1.8939205658652305 -0.537597243956537,0.7891335691105128 -1.1047869967547184,2.051747279687333 c-0.18248713785680637,-1.3711195763295159 -0.11343795055963635,-2.7619674918867947 -0.19235130747068774,-1.9087168202860532 c-0.00493208480694071,0.06904918729716995 -0.02466042403470357,-0.22687590111927244 -0.03945667845552572,-0.3255175972580869 z" id="svg_29"/><path class="fil1" d="m23.407347217460337,5.703339644612788 c0.1874192226637468,0.3452459364858493 0.1972833922776285,0.4636159718524264 0.36497427571361263,1.0012132158089635 l0.09864169613881439,0.3205855124511459 c0.009864169613881427,0.034524593648585025 0.03945667845552572,0.08877752652493279 0.04932084806940717,0.118370035366577 c0.13809837459434,0.4389555478177227 0.00493208480694071,-1.1294474207894214 0.16275879862904336,0.7891335691105128 c0.6214426856745294,-2.160253145440029 0.12823420498045848,-1.159039929631066 0.3699063605205531,-1.0653303182991924 c0.3255175972580869,0.12823420498045848 0.00493208480694071,0.1874192226637468 0.09864169613881439,-0.02466042403470357 l0.12823420498045848,3.003639647426889 c0.07398127210411067,1.1097190815616584 0.13316628978739928,1.4845575268891524 0.24660424034703535,2.2588948415788423 c0.05425293287634777,1.1442436752102436 0.05425293287634777,0.25153632515397634 -0.06904918729716995,1.1294474207894214 c-0.591850176832885,0.05918501768328853 -0.12330212017351776,-0.14796254420822122 -0.5622576679912402,-0.537597243956537 c-0.29592508841644255,-0.2614004947678578 -0.29099300360950164,-0.6411710249022916 -0.36497427571361263,0.3255175972580869 c-0.40936303897607856,2.456178233856471 0.6904918729716989,6.3130685528841015 -0.09370961133187362,7.5510218394262205 c0.21701173150539163,-3.501780212927901 -0.40443095416913805,-3.763180707695758 -0.6411710249022916,-6.870394136068402 c-0.17755505304986563,-2.2884873504204872 -0.10850586575269576,-6.3377289769188065 0.20714756189150968,-8.009705726471706 z" id="svg_30"/><path class="fil2" d="m24.304986652323546,23.863275903768468 c-0.07398127210411067,-0.4586838870454859 -0.05918501768328853,-0.13809837459434 -0.10850586575269576,-1.0061453006159036 c-0.04438876326246641,-0.7546089754619281 -0.04438876326246641,-0.8779110956354457 -0.04932084806940717,-1.6769088343598404 c0,-0.9716207069673187 0.05425293287634777,-2.352604452910717 0.09370961133187362,-3.151602191635111 c0.014796254420822148,0.09864169613881439 0.034524593648585025,0.3945667845552569 0.03945667845552572,0.3255175972580869 c0.07398127210411067,-0.8532506716007421 0.009864169613881427,0.537597243956537 0.19235130747068774,1.9087168202860532 c0.5671897527981814,-1.2626137105768205 -0.2120796466984505,-0.15782671382210273 1.1047869967547184,-2.051747279687333 l0.675695618550877,-1.7459580216570096 c0.014796254420822148,-0.06904918729716995 0.02959250884164425,-0.16769088343598398 0.04438876326246641,-0.24167215554009464 c0.1035737809457549,-0.7496768906549875 0.05918501768328853,0.26633257957479817 0.08877752652493279,-1.3612554067156344 l0.07891335691105142,1.2330212017351758 c-0.03945667845552572,2.0961360429498 -0.5869180920259439,4.522721767964627 -0.8483185867938017,6.727363676667122 c-0.17755505304986563,0.21701173150539163 -0.24660424034703535,-1.0899907423338957 -0.11343795055963635,0.9272319437048526 c-0.1874192226637468,1.5684029686071446 0.00493208480694071,0.22687590111927244 -0.1972833922776285,0.9124356892840305 l-0.17262296824292486,-0.8236581627590981 c-0.04438876326246641,-0.606646431253707 -0.05425293287634777,-0.8187260779521572 -0.07398127210411067,-1.8298034633750015 c-0.40443095416913805,0.7496768906549875 -0.3452459364858493,-1.1491757600171841 -0.5030726503079519,1.7656863608847726 c-0.24167215554009464,-0.4685480566593671 -0.12823420498045848,-1.2971383042254052 -0.25153632515397634,0.08877752652493279 z" id="svg_31"/><path class="fil0" d="m25.498551175603193,23.74983795320883 c-0.12823420498045848,-2.012290601231807 -0.06411710249022927,-0.7102202121994617 0.11343795055963635,-0.9272319437048526 c0.1430304594012805,-0.3255175972580869 0.06904918729716995,-0.04438876326246641 0.2120796466984505,-0.7644731450758092 c0.23674007073315398,-1.1639720144380068 0.1035737809457549,-1.2034286928935323 0.5869180920259439,-3.043096325882415 c-0.08877752652493279,1.8988526506721712 -0.38470261494137536,3.787841131730461 -0.3945667845552569,5.701490036823455 c-0.009864169613881427,2.7175787286243285 0.38470261494137536,2.6731899653618623 0.15782671382210273,5.622576679912403 c-0.12330212017351776,-2.426585725014827 0.07891335691105142,-1.637452155904314 -0.35017802129279024,-1.6670446647459582 c-0.1874192226637468,2.362468622524598 0.6313068552884104,4.567110531227093 0.034524593648585025,8.655808836180938 c-0.02959250884164425,-5.1836211320946814 -0.16769088343598398,-2.8852696120603127 -0.4438876326246639,-6.347593146532688 c-0.24660424034703535,-3.0529604954962966 0.06904918729716995,-4.7791901779255435 0.07891335691105142,-7.230436326975075 z" id="svg_32"/><path class="fil3" d="m24.62064007996775,5.520852506755982 l-0.49814056550101143,0.4685480566593671 c0.02466042403470357,-4.034445372077497 -0.03945667845552572,-0.22687590111927244 -0.17755505304986563,-2.7077145590104474 l0.29099300360950164,-0.8581827564076828 c0.118370035366577,1.5388104597655001 -0.014796254420822148,0.25153632515397634 0.15289462901516201,1.0258736398436668 c0.5178689047287739,-1.4352366788197455 1.1984966080865913,-0.6214426856745294 1.760754276077832,0.2761967491886798 v0.44881971743160437 l0.04438876326246641,2.0616114493012145 c-0.2860609188025613,0 -0.5721218376051221,0.02959250884164425 -0.8581827564076828,0.02466042403470357 c-0.537597243956537,-0.009864169613881427 -0.38963469974831594,0.15782671382210273 -0.7200843818133429,-0.7398127210411061 z" id="svg_33"/><path class="fil4" d="m24.304986652323546,23.863275903768468 c0.12330212017351776,-1.3809837459433973 0.009864169613881427,-0.5573255831842997 0.25153632515397634,-0.08877752652493279 c0.15782671382210273,-2.9148621209019563 0.09864169613881439,-1.0160094702297853 0.5030726503079519,-1.7656863608847726 c0.01972833922776285,1.0110773854228445 0.02466042403470357,1.2231570321212952 0.07398127210411067,1.8298034633750015 l0.17262296824292486,0.8236581627590981 l-0.17755505304986563,5.39570077879313 c-0.3156534276442052,-0.7398127210411061 -0.29592508841644255,-1.0110773854228445 -0.5228009895357145,-2.45124614904953 c-0.2219438163123322,-1.420440424398923 -0.3205855124511459,-1.928445159513816 -0.300857173223383,-3.7434523684679957 z" id="svg_34"/><path class="fil5" d="m24.546658807863636,6.84265123501609 l0.07398127210411067,-1.321798728260109 c0.33044968206502734,0.8976394348632086 0.18248713785680637,0.7299485514272246 0.7200843818133429,0.7398127210411061 c0.2860609188025613,0.00493208480694071 0.5721218376051221,-0.02466042403470357 0.8581827564076828,-0.02466042403470357 l-0.04438876326246641,-2.0616114493012145 l0.15782671382210273,0.29099300360950164 c0.04932084806940717,1.8988526506721712 -0.04438876326246641,2.7915600007284396 -0.15782671382210273,4.429012156632753 l-0.034524593648585025,0.8581827564076828 c-0.3994988693621974,0.3403138516789088 -0.118370035366577,-0.4586838870454859 -0.36497427571361263,-2.1799814846677914 l-0.3255175972580869,0.24660424034703535 l-0.08384544171799202,2.1503889758261465 c-0.014796254420822148,-0.04438876326246641 -0.03945667845552572,-0.118370035366577 -0.04932084806940717,-0.13809837459434 l-0.29099300360950164,-0.4636159718524264 c-0.25646840996091697,-0.034524593648585025 -0.16275879862904336,-0.00493208480694071 -0.33044968206502734,0.4833443110801893 l-0.12823420498045848,-3.003639647426889 z" id="svg_35"/><path class="fil6" d="m23.407347217460337,5.703339644612788 c0.13809837459434,-1.972833922776282 0.8137939931452164,-4.932084806940704 1.1047869967547184,-5.287194913040436 c0.29099300360950164,-0.36004219090667183 0.6707635337439359,-0.606646431253707 1.1146511663685998,-0.2219438163123322 c0.4784122262732484,0.41429512378301947 0.4685480566593671,0.8088619083382756 0.8137939931452164,2.022154770845689 c-0.17262296824292486,-0.22687590111927244 -0.24167215554009464,-0.3452459364858493 -0.40443095416913805,-0.6707635337439359 c-0.6165106008675885,-1.0554661486853114 -1.3661874915225751,-1.8445997177958242 -1.800210954533358,0.8828431804423862 l-0.29099300360950164,0.8581827564076828 c0.13316628978739928,2.480838657891175 0.202215477084569,-1.3267308130670494 0.17755505304986563,2.7077145590104474 l0.49814056550101143,-0.4685480566593671 l-0.07398127210411067,1.321798728260109 c-0.09370961133187362,0.20714756189150968 0.23180798592621352,0.15289462901516201 -0.09864169613881439,0.02466042403470357 c-0.24167215554009464,-0.09864169613881439 0.24660424034703535,-1.0949228271408369 -0.3699063605205531,1.0653303182991924 c-0.15782671382210273,-1.9235130747068752 -0.02466042403470357,-0.35017802129279024 -0.16275879862904336,-0.7891335691105128 c-0.009864169613881427,-0.02959250884164425 -0.034524593648585025,-0.08384544171799202 -0.04932084806940717,-0.118370035366577 l-0.09864169613881439,-0.3205855124511459 c-0.16769088343598398,-0.537597243956537 -0.17755505304986563,-0.6559672793231139 -0.36497427571361263,-1.0012132158089635 z" id="svg_36"/><path class="fil7" d="m24.235937465026375,2.4235032479972194 c0.4340234630107824,-2.7225108134312688 1.1787682688588286,-1.933377244320756 1.800210954533358,-0.8828431804423862 l0.118370035366577,2.1799814846677914 c-0.5622576679912402,-0.8976394348632086 -1.2478174561559983,-1.711433428008424 -1.760754276077832,-0.2761967491886798 c-0.16769088343598398,-0.7743373146896908 -0.03945667845552572,0.5129368199218335 -0.15289462901516201,-1.0258736398436668 z" id="svg_37"/><path class="fil6" d="m24.926429337998073,12.105185724021823 c-0.118370035366577,-0.7743373146896908 -0.17262296824292486,-1.1491757600171841 -0.24660424034703535,-2.2588948415788423 c0.16769088343598398,-0.4882763958871299 0.06904918729716995,-0.5178689047287739 0.33044968206502734,-0.4833443110801893 l0.29099300360950164,0.4636159718524264 c0.009864169613881427,0.01972833922776285 0.034524593648585025,0.09370961133187362 0.04932084806940717,0.13809837459434 l0.15782671382210273,-0.2614004947678578 c0.04438876326246641,1.5092179509238557 0.2219438163123322,4.044309541691378 0.07398127210411067,5.420361202827835 c-0.202215477084569,1.859395972216646 -0.08877752652493279,0.6954239577786395 -0.33044968206502734,1.4303045940128047 c0.08877752652493279,-2.860609188025609 0.014796254420822148,-2.890201696867253 -0.3205855124511459,-4.443808411053575 z" id="svg_38"/><path class="fil8" d="m26.31234516874841,4.46045427326373 c0.16769088343598398,0.37483844532749355 0.23180798592621352,0.5523934983773591 0.41429512378301947,0.8927073500562678 l-0.09370961133187362,-1.9925622620040446 l0.4685480566593671,3.807569470958224 c-0.5671897527981814,0.902571519670149 -0.2761967491886798,1.711433428008424 -0.9469602829326151,1.7212975976223066 c0.11343795055963635,-1.637452155904314 0.20714756189150968,-2.5301595059605817 0.15782671382210273,-4.429012156632753 z" id="svg_39"/><path class="fil9" d="m25.12864481508264,34.60535661328531 l0.23180798592621352,1.5092179509238557 l0.29592508841644255,0.01972833922776285 c-0.034524593648585025,2.5498878451883455 0.014796254420822148,2.8852696120603127 0.1874192226637468,4.996201909430934 c-0.20714756189150968,-0.4784122262732484 -0.17262296824292486,-0.3403138516789088 -0.36004219090667183,-1.1639720144380068 c-0.37977053013443485,-1.6621125799390175 -0.44881971743160437,-2.983911308199127 -0.3551101060997306,-5.361176185144546 z" id="svg_40"/><path class="fil2" d="m25.12864481508264,34.60535661328531 l-0.12330212017351776,-4.044309541691378 c0.3945667845552569,0.90750360447709 0.6313068552884104,2.6879862197826845 0.6510351945161733,5.573255831842997 l-0.29592508841644255,-0.01972833922776285 l-0.23180798592621352,-1.5092179509238557 z" id="svg_41"/><path class="fil10" d="m26.31234516874841,4.46045427326373 l-0.15782671382210273,-0.29099300360950164 v-0.44881971743160437 l-0.118370035366577,-2.1799814846677914 c0.15782671382210273,0.3255175972580869 0.23180798592621352,0.4438876326246639 0.40443095416913805,0.6707635337439359 l0.17262296824292486,0.424159293396901 c0.17262296824292486,0 0.10850586575269576,-0.10850586575269576 0.02466042403470357,0.725016466620284 l0.09370961133187362,1.9925622620040446 c-0.17755505304986563,-0.3403138516789088 -0.24660424034703535,-0.5178689047287739 -0.41429512378301947,-0.8927073500562678 z" id="svg_42"/><path class="fil8" d="m25.503483260410135,9.69832833823476 l-0.15782671382210273,0.2614004947678578 l0.08384544171799202,-2.1503889758261465 l0.3255175972580869,-0.24660424034703535 c0.25153632515397634,1.7212975976223066 -0.034524593648585025,2.520295336346701 0.36497427571361263,2.1799814846677914 c-0.17755505304986563,1.3661874915225751 0.1874192226637468,0.4685480566593671 -0.14796254420822122,1.0456019790714293 l-0.15289462901516201,-0.47348014146630796 c-0.28112883399562033,-0.675695618550877 -0.2219438163123322,0.17755505304986563 -0.3156534276442052,-0.6214426856745294 z" id="svg_43"/><path class="fil0" d="m41.79415937773529,12.687171731240827 c-6.875326220875343,-3.0973492587587623 0.6165106008675885,-1.706501343201484 -3.2403797181600433,-0.7299485514272246 c-0.5573255831842997,0.1430304594012805 -0.1430304594012805,-0.33044968206502734 1.627587986290433,1.5190821205377372 c-2.362468622524598,-0.14796254420822122 -3.255175972580865,-2.574548269223048 -3.1959909548975767,-1.2971383042254052 c0.02959250884164425,0.6855597881647578 -1.154107844824125,-0.6559672793231139 -2.480838657891175,0.922299858897912 c0.09370961133187362,0.14796254420822122 4.359962969335583,3.0874850891448813 2.1799814846677914,0.8828431804423862 c-1.6719767495528992,-1.6867730039737214 1.7459580216570096,1.4796254420822121 5.449953711669479,0.05918501768328853 c0.9716207069673187,-0.37483844532749355 0.12823420498045848,-0.8779110956354457 -0.3452459364858493,-1.3563233219086943 z" id="svg_44"/><path class="fil1" d="m35.79674425249539,7.626852719319663 c0.28112883399562033,0.6461031097092325 1.425372509205864,2.604140778064693 0.00493208480694071,1.5733350534140853 c5.272398658619615,5.740946715278981 1.5388104597655001,0.5326651591495963 4.103494559374666,1.869260141830527 c8.502914207165777,4.424080071825812 -0.7052881273925208,-1.627587986290433 -2.737307067852091,-2.9000658664811345 c-0.41922720858996027,-0.2614004947678578 -0.8976394348632086,-0.40443095416913805 -1.3711195763295159,-0.5425293287634779 z" id="svg_45"/><path class="fil2" d="m44.76820651632053,14.960862827240494 c-0.5721218376051221,-0.5178689047287739 -4.54245010719239,-4.438876326246634 -1.9432414139346377,-1.2527495409629392 c-5.292126997847377,1.3119345586462277 -5.844520496224735,0.3994988693621974 0.9321640285117934,2.5696161844161076 c2.2934194352274275,0.7348806362341652 -2.7668995766937354,-1.711433428008424 0.2860609188025613,-1.1047869967547184 c0.922299858897912,0.18248713785680637 -0.2860609188025613,-0.8976394348632086 0.725016466620284,-0.21701173150539163 z" id="svg_46"/><path class="fil0" d="m43.81138206377403,16.33198240357001 c-1.1935645232796506,-0.725016466620284 -1.6670446647459582,-0.6954239577786395 -3.0283000714615933,-0.7595410602688688 c7.940656539174535,5.371040354758428 5.006066079044816,8.266174136432621 9.015851027087608,11.496689684978785 c-1.0061453006159036,-2.9888433930060674 -3.871686573448453,-8.374680002185316 -5.982618870819074,-10.737148624709915 z" id="svg_47"/><path class="fil3" d="m35.07665987068204,9.032496889297763 c0.8581827564076828,-1.159039929631066 -1.2872741346115242,-1.5289462901516184 -1.3365949826809311,-1.494421696503034 c0.675695618550877,1.1886324384727098 -1.7804826153055946,1.474693357275271 -0.06904918729716995,3.255175972580865 c0.9124356892840305,0.9469602829326151 1.7459580216570096,-0.36497427571361263 1.4105762547850418,-1.760754276077832 z" id="svg_48"/><path class="fil4" d="m44.76820651632053,14.960862827240494 c-4.0936303897607855,-1.7410259368500691 5.977686786012135,9.331504454731816 0.9814848765812005,1.3267308130670494 c-0.300857173223383,-0.4882763958871299 -0.6214426856745294,-0.8828431804423862 -0.9814848765812005,-1.3267308130670494 z" id="svg_49"/><path class="fil5" d="m35.80167633730233,9.402403249818315 c-2.0320189404595705,-0.8532506716007421 0.951892367739556,1.7163655128153663 -2.1947777390886136,1.3908479155572788 c0.10850586575269576,0.49814056550101143 3.8470261494137503,3.062824665110178 2.1947777390886136,0.5474614135704186 c-1.0899907423338957,-1.657180495132077 1.0801265727200147,0.725016466620284 1.075194487913074,-0.26633257957479817 c-0.00493208480694071,-1.1442436752102436 1.3859158307503383,0.25646840996091697 -1.075194487913074,-1.6769088343598404 z" id="svg_50"/><path class="fil6" d="m35.79674425249539,7.626852719319663 c-2.475906573084234,-0.7595410602688688 -5.301991167461258,-1.0850586575269554 -3.501780212927901,2.495634912311997 c0.00493208480694071,-0.01972833922776285 -0.13316628978739928,-4.562178446420152 2.2934194352274275,-2.352604452910717 c0.300857173223383,0.2761967491886798 0.7003560425855804,2.3279440288760127 1.726229682429247,1.6177238166765513 c0.24167215554009464,-0.16769088343598398 -0.38963469974831594,-1.4598971028544487 -0.5178689047287739,-1.760754276077832 z" id="svg_51"/><path class="fil7" d="m33.66115153109006,7.483822259918383 c-3.299564735843332,-0.2761967491886798 -0.05425293287634777,4.039377456884438 -0.33044968206502734,2.3920611313662428 c-0.4340234630107824,-2.5646840996091664 1.6621125799390175,-1.2132928625074135 0.33044968206502734,-2.3920611313662428 z" id="svg_52"/><path class="fil6" d="m38.26771874077268,11.631705582555515 c-2.525227421153641,-2.6682578805549224 -1.726229682429247,0.8927073500562678 1.7212975976223066,2.1503889758261465 c0,-0.02466042403470357 -1.5831992230279663,-1.9531055835485196 -1.7212975976223066,-2.1503889758261465 z" id="svg_53"/><path class="fil8" d="m33.63155902224841,10.852436183058884 c0.07891335691105142,1.7706184456917131 -1.8643280570235867,-0.8285902475660385 0.12823420498045848,1.0702624031061332 c0.6855597881647578,0.6510351945161733 4.029513287270556,2.022154770845689 0.08384544171799202,-0.90750360447709 c-0.06904918729716995,-0.05425293287634777 -0.13809837459434,-0.1035737809457549 -0.2120796466984505,-0.15782671382210273 z" id="svg_54"/><path class="fil9" d="m38.420613369787844,9.328421977714207 c2.4709744882772933,3.1959909548975767 11.940577317603449,13.237715621828855 3.7533165380818767,3.35381766871968 c-1.154107844824125,-1.3908479155572788 -2.3328761136829543,-2.2687590111927247 -3.7533165380818767,-3.35381766871968 z" id="svg_55"/><path class="fil2" d="m48.96541068702707,23.30595032058417 c-4.532585937578508,-9.420281981256746 2.2588948415788423,6.806277033578173 0,0 z" id="svg_56"/><path class="fil10" d="m33.63155902224841,10.852436183058884 c-1.8150072089541793,-3.7039956900124693 -1.474693357275271,1.5733350534140853 0.009864169613881427,0.7743373146896908 c0.16769088343598398,-0.08877752652493279 0.01972833922776285,-0.6214426856745294 -0.009864169613881427,-0.7743373146896908 z" id="svg_57"/><path class="fil8" d="m36.694383687358595,11.577452649679167 c-0.00493208480694071,-0.8877752652493274 -2.3328761136829543,-1.1984966080865913 0.05918501768328853,1.0554661486853114 c0.29592508841644255,-0.10850586575269576 0.09370961133187362,-0.8187260779521572 -0.05918501768328853,-1.0554661486853114 z" id="svg_58"/><path class="fil0" d="m48.299579238090075,31.335384386283625 c-0.1430304594012805,1.5831992230279663 -1.800210954533358,11.80247894300911 -0.7743373146896908,3.842094064606809 c0.7348806362341652,-5.696557952016515 0.26633257957479817,-7.89626777591207 -1.3711195763295159,-13.351153572388489 c3.763180707695758,12.783963819590307 0.1430304594012805,26.352129123484186 -12.137860709881075,32.749043118086284 c-6.446234842671501,3.35381766871968 -12.552155833664093,3.1368059372142882 -19.175945729385464,0.5129368199218335 c1.9974943468109854,0.5474614135704186 3.556033145804248,1.0505340638783704 5.637372934333225,1.3612554067156344 c-12.08853986181167,-2.7570354070798553 -21.21782883945891,-11.516418024206544 -19.905894280812685,-24.517393575302243 c0.9716207069673187,-9.607701203920493 7.255096751009779,-15.131636187694083 15.80239972143802,-18.460793432379056 c-10.653303182991923,2.5548199299952854 -15.999683113715648,11.442436752102436 -15.945430180839303,22.016826578183306 c0.034524593648585025,6.283476044042458 0.034524593648585025,-9.29204777627629 -0.37977053013443485,-2.3328761136829543 c-1.711433428008424,28.975998240776647 46.19390630180664,35.44196142267591 48.25551775110785,-1.8150072089541793 z" id="svg_59"/><path class="fil2" d="m48.427813443070534,27.103655621928503 c-2.4167215554009456,-5.494342474931946 -0.09370961133187362,0.04932084806940717 -0.06411710249022927,4.202136255513481 c0.10850586575269576,16.305472371745974 -12.907265939763825,27.792297887110873 -28.68500523716714,25.6271126568639 c-12.083607777004728,-1.657180495132077 -18.510114280448466,-10.939364101794483 -19.639561701237888,-22.44591795638715 c0.5178689047287739,28.975998240776647 44.89676799758124,32.37913675756573 48.4675973978063,-0.3699063605205531 c0.28112883399562033,-2.5696161844161076 0.1874192226637468,-4.4586046654743985 -0.07891335691105142,-7.013424595469683 z" id="svg_60"/><path class="fil0" d="m32.96079548850448,55.828117537551165 c1.6867730039737214,-1.040669894264489 -4.655888057752025,1.2280891169282353 -5.800131732962269,1.3859158307503383 c-13.262376045863556,1.869260141830527 -22.74184304480359,-5.676829612788753 -26.717103399197796,-17.997177460526633 c3.501780212927901,14.26358926167252 16.448502831147252,21.21289675465197 30.297796969036746,17.868943255546174 c6.756956185508766,-1.6325200710973737 13.725992017715985,-6.628721980528307 16.03420770736423,-13.365949826809311 c0.19235130747068774,-0.5622576679912402 -3.1663984460559327,4.517789683157685 -4.177475831478778,5.6077804254915815 c-2.9345904601297192,3.171330530862873 -5.73601463047204,4.789054347539425 -9.642225797569077,6.4955556907409076 z" id="svg_61"/><path class="fil3" d="m45.182501640103546,41.92457046678531 c3.4968481281209596,-10.105841769421504 3.14667010682817,-18.263510040101433 -3.7385202836610545,-26.87986219782684 c-3.048028410689355,-3.807569470958224 2.1701173150539104,3.3094289054572137 2.8556771032186683,4.591770955261796 c12.290755338896238,23.0574964724478 -15.575523820318747,48.29990651437032 -35.96969449701856,30.608518311874015 c-2.426585725014827,-2.1010681277567405 -8.493050037551896,-12.374600780614228 -4.399419647791109,-4.986337739817052 c8.877752652493268,16.029275622557293 31.239825167162422,14.140287141499002 40.44802750172072,-1.928445159513816 l0.8088619083382756,-1.4105762547850418 z" id="svg_62"/><path class="fil4" d="m48.427813443070534,27.103655621928503 c0.9765527917742594,12.571884172891858 -0.9913490461950817,14.012052936518545 -7.787761910159373,23.600025801211277 c-0.04438876326246641,0.06411710249022927 7.235368411782015,-5.3661082699514875 8.734722193091988,-16.601397460162413 c0.25153632515397634,-1.8741922266374687 0.3699063605205531,-5.4894103901250055 -0.9469602829326151,-7.0035604258558015 z" id="svg_63"/><path class="fil5" d="m45.700370544832325,40.928289335783305 c-7.639799365951151,13.839429968275619 -22.120400359129064,21.025477531988226 -35.9746265818255,10.84565449046261 c-3.4425951952446123,-2.5301595059605817 -5.114571944797511,-5.3463799307237245 -7.13179463083626,-9.001054772666787 c5.612712510298522,16.532348272865242 32.892073577487565,19.575444598747662 41.838875417278,0.8088619083382756 l1.2626137105768205,-2.6534616261340993 z" id="svg_64"/><path class="fil7" d="m44.9704219934051,20.918821274024864 c4.867967704450476,15.102043678852441 0.034524593648585025,30.332321562685337 -16.458367000761132,34.4111556980253 c-9.834577105039767,2.4315178098217682 -17.444783962149273,-2.1158643821775627 -23.73319209099867,-9.301911945890168 c5.558459577422174,10.352446009768538 22.120400359129064,12.833284667659715 31.910588700906366,6.1108530757995325 c10.367242264189363,-7.116998376415438 12.23650240601989,-19.905894280812685 8.280970390853442,-31.22009682793466 z" id="svg_65"/><path class="fil6" d="m36.926191673284805,52.55814531054948 c3.2601080573878063,-2.648529541327159 4.409283817404991,-3.8223657253790457 6.850665796840639,-7.250164666202837 c-8.364815832571434,10.811129896814025 -17.296821417941054,13.602689897542465 -30.268204460195104,9.07996812957784 c8.25630996681874,4.453672580667457 15.71855427972003,2.9197942057088975 23.417538663354467,-1.8298034633750015 z" id="svg_66"/><path class="fil8" d="m2.2930921589471778,41.76674375296322 c-2.840880848797847,-9.38575738760816 -1.4155083395919825,-15.743214703754731 5.020862333465638,-23.16600233820049 c-5.750810884892862,3.6891994355916484 -8.779110956354453,15.703758025299209 -5.657101273560989,21.898456542816728 l0.6411710249022916,1.2724778801907017 z" id="svg_67"/><path class="fil9" d="m49.71508757768205,28.938391170110442 c0.4438876326246639,4.517789683157685 0.20714756189150968,5.750810884892862 -0.7792693994966314,10.125570108649265 c1.4845575268891524,-5.957958446784372 2.6682578805549224,-11.876460215113218 -0.4685480566593671,-17.479308555797857 c0.40936303897607856,2.6337332869063372 0.9962811310020224,4.606567209682618 1.2478174561559983,7.3488063623416515 z" id="svg_68"/><path class="fil2" d="m49.71508757768205,28.938391170110442 c-0.11343795055963635,5.583120001456879 -0.4685480566593671,7.407991380024939 -2.2983515200343683,12.66559378422373 c-1.075194487913074,3.0924171739518216 1.4105762547850418,-2.2983515200343683 1.8840563962513497,-4.927152722133764 c0.5129368199218335,-2.8458129336047873 0.4833443110801893,-4.877831874064357 0.41429512378301947,-7.738441062089968 z" id="svg_69"/><path class="fil10" d="m2.2930921589471778,41.76674375296322 c2.1503889758261465,3.008571732233831 1.9037847354791122,3.91114325190398 4.675616396979788,6.830937457612877 c6.130581415027297,6.451166927478442 -3.235447633353102,-1.5684029686071446 -5.050454842307282,-8.493050037551896 c-1.3711195763295159,-5.2477382345849115 0.2860609188025613,-16.280811947711268 -0.7792693994966314,-8.650876751373998 c-0.6559672793231139,4.685480566593669 -0.305789258030324,5.780403393734506 1.154107844824125,10.312989331313014 z" id="svg_70"/><path class="fil8" d="m19.476475626328593,56.247344746141124 c1.8445997177958242,0.18248713785680637 12.369668695807286,0.18248713785680637 4.359962969335583,0.1874192226637468 c-8.142872016259105,0.00493208480694071 -12.976315127060996,-2.8951337816741938 -18.515046365255408,-8.557167140042123 c2.6238691172924553,4.82357894118801 9.10462855361254,7.072609613152972 14.155083395919823,8.369747917378376 z" id="svg_71"/></g></g></svg>